<svg width="706" height="125" viewBox="0 0 706 125" fill="none" xmlns="http://www.w3.org/2000/svg">
<rect width="706" height="125" rx="8" fill="#252528"/>
<path d="M286.293 70V52.8203H288.566V70H286.293ZM307.117 68.4648C306.336 69.1289 305.582 69.5977 304.855 69.8711C304.137 70.1445 303.363 70.2812 302.535 70.2812C301.168 70.2812 300.117 69.9492 299.383 69.2852C298.648 68.6133 298.281 67.7578 298.281 66.7188C298.281 66.1094 298.418 65.5547 298.691 65.0547C298.973 64.5469 299.336 64.1406 299.781 63.8359C300.234 63.5312 300.742 63.3008 301.305 63.1445C301.719 63.0352 302.344 62.9297 303.18 62.8281C304.883 62.625 306.137 62.3828 306.941 62.1016C306.949 61.8125 306.953 61.6289 306.953 61.5508C306.953 60.6914 306.754 60.0859 306.355 59.7344C305.816 59.2578 305.016 59.0195 303.953 59.0195C302.961 59.0195 302.227 59.1953 301.75 59.5469C301.281 59.8906 300.934 60.5039 300.707 61.3867L298.645 61.1055C298.832 60.2227 299.141 59.5117 299.57 58.9727C300 58.4258 300.621 58.0078 301.434 57.7188C302.246 57.4219 303.188 57.2734 304.258 57.2734C305.32 57.2734 306.184 57.3984 306.848 57.6484C307.512 57.8984 308 58.2148 308.312 58.5977C308.625 58.9727 308.844 59.4492 308.969 60.0273C309.039 60.3867 309.074 61.0352 309.074 61.9727V64.7852C309.074 66.7461 309.117 67.9883 309.203 68.5117C309.297 69.0273 309.477 69.5234 309.742 70H307.539C307.32 69.5625 307.18 69.0508 307.117 68.4648ZM306.941 63.7539C306.176 64.0664 305.027 64.332 303.496 64.5508C302.629 64.6758 302.016 64.8164 301.656 64.9727C301.297 65.1289 301.02 65.3594 300.824 65.6641C300.629 65.9609 300.531 66.293 300.531 66.6602C300.531 67.2227 300.742 67.6914 301.164 68.0664C301.594 68.4414 302.219 68.6289 303.039 68.6289C303.852 68.6289 304.574 68.4531 305.207 68.1016C305.84 67.7422 306.305 67.2539 306.602 66.6367C306.828 66.1602 306.941 65.457 306.941 64.5273V63.7539ZM312.355 70V57.5547H314.242V59.3008C314.633 58.6914 315.152 58.2031 315.801 57.8359C316.449 57.4609 317.188 57.2734 318.016 57.2734C318.938 57.2734 319.691 57.4648 320.277 57.8477C320.871 58.2305 321.289 58.7656 321.531 59.4531C322.516 58 323.797 57.2734 325.375 57.2734C326.609 57.2734 327.559 57.6172 328.223 58.3047C328.887 58.9844 329.219 60.0352 329.219 61.457V70H327.121V62.1602C327.121 61.3164 327.051 60.7109 326.91 60.3438C326.777 59.9688 326.531 59.668 326.172 59.4414C325.812 59.2148 325.391 59.1016 324.906 59.1016C324.031 59.1016 323.305 59.3945 322.727 59.9805C322.148 60.5586 321.859 61.4883 321.859 62.7695V70H319.75V61.9141C319.75 60.9766 319.578 60.2734 319.234 59.8047C318.891 59.3359 318.328 59.1016 317.547 59.1016C316.953 59.1016 316.402 59.2578 315.895 59.5703C315.395 59.8828 315.031 60.3398 314.805 60.9414C314.578 61.543 314.465 62.4102 314.465 63.543V70H312.355ZM347.148 68.4648C346.367 69.1289 345.613 69.5977 344.887 69.8711C344.168 70.1445 343.395 70.2812 342.566 70.2812C341.199 70.2812 340.148 69.9492 339.414 69.2852C338.68 68.6133 338.312 67.7578 338.312 66.7188C338.312 66.1094 338.449 65.5547 338.723 65.0547C339.004 64.5469 339.367 64.1406 339.812 63.8359C340.266 63.5312 340.773 63.3008 341.336 63.1445C341.75 63.0352 342.375 62.9297 343.211 62.8281C344.914 62.625 346.168 62.3828 346.973 62.1016C346.98 61.8125 346.984 61.6289 346.984 61.5508C346.984 60.6914 346.785 60.0859 346.387 59.7344C345.848 59.2578 345.047 59.0195 343.984 59.0195C342.992 59.0195 342.258 59.1953 341.781 59.5469C341.312 59.8906 340.965 60.5039 340.738 61.3867L338.676 61.1055C338.863 60.2227 339.172 59.5117 339.602 58.9727C340.031 58.4258 340.652 58.0078 341.465 57.7188C342.277 57.4219 343.219 57.2734 344.289 57.2734C345.352 57.2734 346.215 57.3984 346.879 57.6484C347.543 57.8984 348.031 58.2148 348.344 58.5977C348.656 58.9727 348.875 59.4492 349 60.0273C349.07 60.3867 349.105 61.0352 349.105 61.9727V64.7852C349.105 66.7461 349.148 67.9883 349.234 68.5117C349.328 69.0273 349.508 69.5234 349.773 70H347.57C347.352 69.5625 347.211 69.0508 347.148 68.4648ZM346.973 63.7539C346.207 64.0664 345.059 64.332 343.527 64.5508C342.66 64.6758 342.047 64.8164 341.688 64.9727C341.328 65.1289 341.051 65.3594 340.855 65.6641C340.66 65.9609 340.562 66.293 340.562 66.6602C340.562 67.2227 340.773 67.6914 341.195 68.0664C341.625 68.4414 342.25 68.6289 343.07 68.6289C343.883 68.6289 344.605 68.4531 345.238 68.1016C345.871 67.7422 346.336 67.2539 346.633 66.6367C346.859 66.1602 346.973 65.457 346.973 64.5273V63.7539ZM371.594 63.9766L373.867 64.5508C373.391 66.418 372.531 67.8438 371.289 68.8281C370.055 69.8047 368.543 70.293 366.754 70.293C364.902 70.293 363.395 69.918 362.23 69.168C361.074 68.4102 360.191 67.3164 359.582 65.8867C358.98 64.457 358.68 62.9219 358.68 61.2812C358.68 59.4922 359.02 57.9336 359.699 56.6055C360.387 55.2695 361.359 54.2578 362.617 53.5703C363.883 52.875 365.273 52.5273 366.789 52.5273C368.508 52.5273 369.953 52.9648 371.125 53.8398C372.297 54.7148 373.113 55.9453 373.574 57.5312L371.336 58.0586C370.938 56.8086 370.359 55.8984 369.602 55.3281C368.844 54.7578 367.891 54.4727 366.742 54.4727C365.422 54.4727 364.316 54.7891 363.426 55.4219C362.543 56.0547 361.922 56.9062 361.562 57.9766C361.203 59.0391 361.023 60.1367 361.023 61.2695C361.023 62.7305 361.234 64.0078 361.656 65.1016C362.086 66.1875 362.75 67 363.648 67.5391C364.547 68.0781 365.52 68.3477 366.566 68.3477C367.84 68.3477 368.918 67.9805 369.801 67.2461C370.684 66.5117 371.281 65.4219 371.594 63.9766ZM376.41 70V52.8203H378.52V58.9844C379.504 57.8438 380.746 57.2734 382.246 57.2734C383.168 57.2734 383.969 57.457 384.648 57.8242C385.328 58.1836 385.812 58.6836 386.102 59.3242C386.398 59.9648 386.547 60.8945 386.547 62.1133V70H384.438V62.1133C384.438 61.0586 384.207 60.293 383.746 59.8164C383.293 59.332 382.648 59.0898 381.812 59.0898C381.188 59.0898 380.598 59.2539 380.043 59.582C379.496 59.9023 379.105 60.3398 378.871 60.8945C378.637 61.4492 378.52 62.2148 378.52 63.1914V70H376.41ZM398.289 65.9922L400.469 66.2617C400.125 67.5352 399.488 68.5234 398.559 69.2266C397.629 69.9297 396.441 70.2812 394.996 70.2812C393.176 70.2812 391.73 69.7227 390.66 68.6055C389.598 67.4805 389.066 65.9062 389.066 63.8828C389.066 61.7891 389.605 60.1641 390.684 59.0078C391.762 57.8516 393.16 57.2734 394.879 57.2734C396.543 57.2734 397.902 57.8398 398.957 58.9727C400.012 60.1055 400.539 61.6992 400.539 63.7539C400.539 63.8789 400.535 64.0664 400.527 64.3164H391.246C391.324 65.6836 391.711 66.7305 392.406 67.457C393.102 68.1836 393.969 68.5469 395.008 68.5469C395.781 68.5469 396.441 68.3438 396.988 67.9375C397.535 67.5312 397.969 66.8828 398.289 65.9922ZM391.363 62.582H398.312C398.219 61.5352 397.953 60.75 397.516 60.2266C396.844 59.4141 395.973 59.0078 394.902 59.0078C393.934 59.0078 393.117 59.332 392.453 59.9805C391.797 60.6289 391.434 61.4961 391.363 62.582ZM411.25 65.4414L413.324 65.7109C413.098 67.1406 412.516 68.2617 411.578 69.0742C410.648 69.8789 409.504 70.2812 408.145 70.2812C406.441 70.2812 405.07 69.7266 404.031 68.6172C403 67.5 402.484 65.9023 402.484 63.8242C402.484 62.4805 402.707 61.3047 403.152 60.2969C403.598 59.2891 404.273 58.5352 405.18 58.0352C406.094 57.5273 407.086 57.2734 408.156 57.2734C409.508 57.2734 410.613 57.6172 411.473 58.3047C412.332 58.9844 412.883 59.9531 413.125 61.2109L411.074 61.5273C410.879 60.6914 410.531 60.0625 410.031 59.6406C409.539 59.2188 408.941 59.0078 408.238 59.0078C407.176 59.0078 406.312 59.3906 405.648 60.1562C404.984 60.9141 404.652 62.1172 404.652 63.7656C404.652 65.4375 404.973 66.6523 405.613 67.4102C406.254 68.168 407.09 68.5469 408.121 68.5469C408.949 68.5469 409.641 68.293 410.195 67.7852C410.75 67.2773 411.102 66.4961 411.25 65.4414ZM415.141 70V52.8203H417.25V62.6172L422.242 57.5547H424.973L420.215 62.1719L425.453 70H422.852L418.738 63.6367L417.25 65.0664V70H415.141ZM429.074 70H427.117V52.8203H429.227V58.9492C430.117 57.832 431.254 57.2734 432.637 57.2734C433.402 57.2734 434.125 57.4297 434.805 57.7422C435.492 58.0469 436.055 58.4805 436.492 59.043C436.938 59.5977 437.285 60.2695 437.535 61.0586C437.785 61.8477 437.91 62.6914 437.91 63.5898C437.91 65.7227 437.383 67.3711 436.328 68.5352C435.273 69.6992 434.008 70.2812 432.531 70.2812C431.062 70.2812 429.91 69.668 429.074 68.4414V70ZM429.051 63.6836C429.051 65.1758 429.254 66.2539 429.66 66.918C430.324 68.0039 431.223 68.5469 432.355 68.5469C433.277 68.5469 434.074 68.1484 434.746 67.3516C435.418 66.5469 435.754 65.3516 435.754 63.7656C435.754 62.1406 435.43 60.9414 434.781 60.168C434.141 59.3945 433.363 59.0078 432.449 59.0078C431.527 59.0078 430.73 59.4102 430.059 60.2148C429.387 61.0117 429.051 62.168 429.051 63.6836ZM439.703 63.7773C439.703 61.4727 440.344 59.7656 441.625 58.6562C442.695 57.7344 444 57.2734 445.539 57.2734C447.25 57.2734 448.648 57.8359 449.734 58.9609C450.82 60.0781 451.363 61.625 451.363 63.6016C451.363 65.2031 451.121 66.4648 450.637 67.3867C450.16 68.3008 449.461 69.0117 448.539 69.5195C447.625 70.0273 446.625 70.2812 445.539 70.2812C443.797 70.2812 442.387 69.7227 441.309 68.6055C440.238 67.4883 439.703 65.8789 439.703 63.7773ZM441.871 63.7773C441.871 65.3711 442.219 66.5664 442.914 67.3633C443.609 68.1523 444.484 68.5469 445.539 68.5469C446.586 68.5469 447.457 68.1484 448.152 67.3516C448.848 66.5547 449.195 65.3398 449.195 63.707C449.195 62.168 448.844 61.0039 448.141 60.2148C447.445 59.418 446.578 59.0195 445.539 59.0195C444.484 59.0195 443.609 59.4141 442.914 60.2031C442.219 60.9922 441.871 62.1836 441.871 63.7773ZM452.441 70L456.988 63.5312L452.781 57.5547H455.418L457.328 60.4727C457.688 61.0273 457.977 61.4922 458.195 61.8672C458.539 61.3516 458.855 60.8945 459.145 60.4961L461.242 57.5547H463.762L459.461 63.4141L464.09 70H461.5L458.945 66.1328L458.266 65.0898L454.996 70H452.441ZM466.445 70V67.5977H468.848V70H466.445Z" fill="white"/>
<rect x="237" y="49" width="26" height="26" rx="7" stroke="white" stroke-width="2"/>
</svg>
