<svg width="500" height="500" viewBox="0 0 500 500" fill="none" xmlns="http://www.w3.org/2000/svg">
<path d="M292.503 463.215C286.043 463.215 279.666 461.768 273.838 458.981L148.97 399.264H148.978H148.968L148.941 399.252C148.919 399.243 148.887 399.229 148.852 399.21L148.841 399.205L148.647 399.116C147.722 398.659 145.568 397.38 145.544 395.407C145.989 386.872 145.892 367.727 140.205 335.413C137.278 320.073 130.095 303.548 124.852 291.481L124.836 291.444V291.435L124.828 291.419C122.737 286.909 120.874 282.297 119.246 277.6C117.99 273.649 117.252 269.552 117.049 265.41C116.685 258.071 118.818 250.824 123.1 244.852V244.846L123.122 244.814L123.281 244.567L123.37 244.431L123.518 244.205C125.223 241.639 127.224 239.282 129.479 237.184C133.196 233.732 137.154 230.551 141.325 227.663L282.7 166.19C285.792 164.846 289.128 164.152 292.499 164.152C295.871 164.152 299.207 164.846 302.299 166.19L467.903 238.193C472.296 240.102 476.035 243.252 478.66 247.257C481.286 251.262 482.684 255.946 482.683 260.735V361.468C482.677 366.099 481.362 370.634 478.89 374.551C476.419 378.467 472.891 381.605 468.713 383.603L311.173 458.981C305.344 461.768 298.966 463.215 292.505 463.215H292.503ZM292.503 188.873C290.621 188.871 288.758 189.257 287.032 190.006L158.507 245.888C156.878 246.597 155.491 247.766 154.517 249.252C153.542 250.738 153.023 252.476 153.023 254.252C153.023 256.029 153.542 257.767 154.517 259.253C155.491 260.739 156.878 261.908 158.507 262.616L287.028 318.501C288.756 319.248 290.618 319.633 292.5 319.633C294.383 319.633 296.245 319.248 297.973 318.501L426.49 262.615C428.12 261.909 429.509 260.742 430.485 259.257C431.46 257.772 431.981 256.035 431.984 254.258C431.986 252.481 431.469 250.742 430.496 249.255C429.524 247.768 428.138 246.598 426.509 245.887L297.972 190.009C296.245 189.259 294.382 188.873 292.499 188.873H292.503Z" fill="url(#paint0_linear_37_12)"/>
<path d="M292.497 264.138C290.525 264.14 288.573 263.733 286.765 262.942L152.155 204.408C150.448 203.666 148.996 202.442 147.976 200.885C146.956 199.329 146.412 197.509 146.412 195.648C146.412 193.788 146.956 191.967 147.976 190.411C148.996 188.855 150.448 187.631 152.155 186.888L282.472 130.218L282.65 130.277C283.115 130.43 283.6 130.571 284.092 130.697C284.584 130.824 285.083 130.935 285.586 131.032C286.09 131.129 286.605 131.214 287.12 131.285C287.634 131.355 288.153 131.41 288.679 131.453C289.205 131.496 289.734 131.525 290.255 131.542C290.548 131.551 290.845 131.555 291.141 131.555C291.362 131.555 291.595 131.555 291.833 131.547C292.355 131.536 292.883 131.51 293.401 131.471C293.918 131.433 294.434 131.383 294.944 131.316C295.455 131.249 295.964 131.171 296.457 131.082C296.95 130.993 297.445 130.885 297.919 130.769C298.393 130.654 298.861 130.519 299.318 130.378C299.774 130.236 300.223 130.079 300.647 129.914C300.853 129.835 301.056 129.752 301.254 129.667L432.853 186.88C434.56 187.623 436.012 188.847 437.032 190.403C438.052 191.959 438.596 193.78 438.596 195.64C438.596 197.501 438.052 199.321 437.032 200.877C436.012 202.434 434.56 203.658 432.853 204.4L298.229 262.94C296.422 263.732 294.47 264.14 292.497 264.138Z" fill="#FFB2BA"/>
<path d="M292.497 195.983C290.525 195.985 288.573 195.578 286.765 194.787L152.155 136.257C150.448 135.514 148.996 134.29 147.976 132.734C146.956 131.178 146.412 129.357 146.412 127.497C146.412 125.636 146.956 123.816 147.976 122.26C148.996 120.703 150.448 119.479 152.155 118.737L286.765 60.1959C288.573 59.4071 290.525 59 292.497 59C294.47 59 296.421 59.4071 298.229 60.1959L432.836 118.737C434.542 119.479 435.994 120.703 437.015 122.26C438.035 123.816 438.578 125.636 438.578 127.497C438.578 129.357 438.035 131.178 437.015 132.734C435.994 134.29 434.542 135.514 432.836 136.257L298.229 194.787C296.422 195.578 294.47 195.985 292.497 195.983ZM232.1 115.224C231.875 115.224 231.649 115.224 231.43 115.231C230.926 115.242 230.415 115.265 229.911 115.3C229.406 115.336 228.903 115.384 228.398 115.445C227.893 115.505 227.394 115.578 226.906 115.662C226.417 115.745 225.927 115.84 225.444 115.951C224.961 116.062 224.491 116.18 224.02 116.313C223.55 116.446 223.1 116.589 222.648 116.746C222.196 116.904 221.763 117.072 221.338 117.252C220.912 117.431 220.491 117.628 220.099 117.828C219.707 118.028 219.314 118.248 218.942 118.476C218.57 118.704 218.224 118.941 217.906 119.178C217.587 119.416 217.288 119.664 217.016 119.913C216.754 120.152 216.506 120.407 216.273 120.675C216.058 120.923 215.859 121.185 215.677 121.459C215.509 121.715 215.361 121.982 215.232 122.259C215.11 122.521 215.01 122.792 214.932 123.07C214.857 123.337 214.806 123.609 214.78 123.885C214.753 124.155 214.752 124.428 214.775 124.698C214.799 124.971 214.847 125.241 214.92 125.505C214.994 125.778 215.093 126.043 215.213 126.298C215.341 126.567 215.489 126.825 215.658 127.071C215.838 127.333 216.036 127.582 216.251 127.817C216.483 128.069 216.731 128.307 216.993 128.529C217.277 128.77 217.574 128.995 217.883 129.203C218.206 129.422 218.556 129.633 218.924 129.832C219.291 130.032 219.696 130.228 220.114 130.409C220.532 130.59 220.968 130.759 221.421 130.915C221.874 131.072 222.327 131.208 222.806 131.336C223.284 131.464 223.762 131.575 224.254 131.672C224.746 131.77 225.25 131.855 225.754 131.924C226.259 131.994 226.778 132.052 227.295 132.094C227.795 132.136 228.322 132.165 228.861 132.183C229.159 132.191 229.454 132.196 229.738 132.196C229.962 132.196 230.193 132.196 230.441 132.188C230.966 132.176 231.498 132.15 232.023 132.112C232.548 132.074 233.077 132.023 233.594 131.955C234.111 131.888 234.632 131.811 235.143 131.72C235.653 131.628 236.165 131.522 236.655 131.406C237.146 131.291 237.634 131.16 238.117 131.018C238.6 130.875 239.075 130.716 239.52 130.551C239.966 130.387 240.427 130.202 240.851 130.012C241.274 129.823 241.698 129.614 242.096 129.4C242.495 129.186 242.885 128.955 243.244 128.717C243.604 128.478 243.941 128.237 244.259 127.982C244.558 127.742 244.844 127.487 245.116 127.217C245.365 126.97 245.599 126.707 245.815 126.431C246.015 126.177 246.197 125.909 246.359 125.63C246.51 125.369 246.64 125.097 246.749 124.817C246.851 124.552 246.931 124.278 246.987 124C247.042 123.731 247.072 123.459 247.076 123.185C247.082 122.914 247.062 122.644 247.017 122.377C246.972 122.107 246.904 121.841 246.812 121.583C246.717 121.316 246.6 121.056 246.463 120.808C246.317 120.547 246.152 120.297 245.97 120.06C245.774 119.806 245.562 119.566 245.335 119.341C245.091 119.099 244.833 118.871 244.563 118.658C244.271 118.429 243.967 118.215 243.653 118.018C243.329 117.813 242.976 117.614 242.605 117.424C242.234 117.235 241.836 117.052 241.422 116.882C241.008 116.712 240.569 116.552 240.135 116.411C239.701 116.269 239.245 116.138 238.785 116.019C238.34 115.905 237.864 115.8 237.379 115.708C236.894 115.616 236.412 115.538 235.931 115.474C235.45 115.41 234.952 115.356 234.449 115.316C233.945 115.276 233.442 115.251 232.945 115.237C232.67 115.228 232.385 115.224 232.1 115.224ZM290.997 114.64C290.779 114.64 290.552 114.64 290.33 114.647C289.825 114.658 289.319 114.681 288.826 114.717C288.333 114.752 287.838 114.8 287.341 114.86C286.845 114.92 286.362 114.993 285.885 115.076C285.407 115.16 284.937 115.254 284.469 115.364C284.001 115.475 283.538 115.597 283.103 115.726C282.648 115.861 282.213 116.006 281.8 116.158C281.371 116.317 280.955 116.486 280.565 116.662C280.176 116.838 279.777 117.036 279.415 117.237C279.053 117.437 278.691 117.657 278.359 117.882C278.036 118.099 277.725 118.332 277.427 118.581C277.154 118.81 276.894 119.054 276.649 119.313C276.422 119.552 276.212 119.806 276.019 120.072C275.841 120.321 275.681 120.582 275.541 120.854C275.409 121.111 275.299 121.379 275.211 121.654C275.128 121.918 275.069 122.188 275.033 122.462C274.997 122.731 274.986 123.003 275 123.274C275.013 123.547 275.051 123.819 275.114 124.085C275.179 124.359 275.267 124.627 275.375 124.886C275.492 125.159 275.629 125.423 275.785 125.675C275.951 125.945 276.137 126.202 276.339 126.446C276.557 126.708 276.79 126.956 277.038 127.19C277.307 127.442 277.589 127.679 277.883 127.902C278.184 128.129 278.516 128.356 278.871 128.574C279.226 128.792 279.607 129.003 280.002 129.197C280.397 129.391 280.836 129.593 281.274 129.771C281.711 129.949 282.183 130.127 282.652 130.275C283.121 130.422 283.601 130.568 284.093 130.695C284.585 130.821 285.085 130.932 285.588 131.029C286.078 131.124 286.594 131.207 287.121 131.282C287.632 131.351 288.157 131.407 288.681 131.45C289.205 131.493 289.739 131.522 290.257 131.539C290.547 131.548 290.845 131.552 291.142 131.552C291.365 131.552 291.598 131.552 291.835 131.544C292.357 131.533 292.884 131.507 293.402 131.469C293.921 131.43 294.437 131.38 294.946 131.312C295.455 131.244 295.968 131.168 296.459 131.078C296.95 130.988 297.438 130.883 297.921 130.767C298.404 130.65 298.869 130.519 299.323 130.378C299.777 130.236 300.227 130.079 300.653 129.914C301.079 129.75 301.503 129.567 301.899 129.38C302.295 129.194 302.689 128.983 303.05 128.771C303.412 128.559 303.767 128.326 304.095 128.09C304.41 127.863 304.712 127.618 305 127.358C305.263 127.12 305.511 126.865 305.743 126.596C305.955 126.349 306.15 126.087 306.326 125.812C306.488 125.557 306.63 125.289 306.75 125.012C306.862 124.75 306.952 124.479 307.017 124.202C307.146 123.669 307.176 123.118 307.106 122.574C307.07 122.303 307.01 122.035 306.928 121.774C306.842 121.502 306.735 121.237 306.608 120.983C306.472 120.715 306.317 120.457 306.145 120.211C305.961 119.95 305.76 119.7 305.544 119.465C305.312 119.214 305.066 118.976 304.807 118.753C304.528 118.512 304.237 118.285 303.936 118.073C303.624 117.853 303.287 117.639 302.934 117.435C302.581 117.231 302.193 117.027 301.803 116.843C301.413 116.659 300.978 116.472 300.543 116.303C300.108 116.134 299.653 115.976 299.191 115.832C298.73 115.689 298.259 115.558 297.786 115.443C297.314 115.328 296.819 115.22 296.339 115.132C295.858 115.044 295.36 114.965 294.86 114.899C294.36 114.833 293.856 114.782 293.36 114.742C292.863 114.703 292.347 114.677 291.847 114.663C291.565 114.644 291.28 114.64 291.003 114.64H290.997ZM350.24 114.276C350.02 114.276 349.795 114.276 349.581 114.283C349.083 114.294 348.581 114.317 348.09 114.353C347.598 114.388 347.101 114.437 346.629 114.496C346.156 114.555 345.665 114.629 345.205 114.711C344.745 114.794 344.29 114.889 343.835 115C343.379 115.11 342.945 115.23 342.525 115.356C342.105 115.481 341.683 115.632 341.287 115.787C340.891 115.942 340.493 116.114 340.13 116.29C339.755 116.468 339.397 116.664 339.063 116.864C338.732 117.061 338.412 117.276 338.104 117.507C337.815 117.723 337.539 117.956 337.278 118.205C337.038 118.433 336.815 118.676 336.608 118.934C336.417 119.173 336.245 119.426 336.093 119.691C335.95 119.941 335.829 120.201 335.73 120.471C335.635 120.729 335.564 120.995 335.518 121.266C335.473 121.531 335.452 121.799 335.456 122.067C335.461 122.34 335.491 122.611 335.545 122.879C335.601 123.154 335.68 123.424 335.78 123.687C335.886 123.963 336.013 124.231 336.16 124.487C336.316 124.762 336.492 125.025 336.684 125.276C336.891 125.545 337.114 125.801 337.351 126.044C337.607 126.304 337.877 126.552 338.16 126.785C338.448 127.024 338.766 127.263 339.106 127.497C339.446 127.731 339.818 127.955 340.192 128.167C340.566 128.378 340.993 128.596 341.413 128.79C341.833 128.983 342.302 129.183 342.766 129.363C343.23 129.542 343.723 129.711 344.215 129.865C344.707 130.019 345.212 130.159 345.717 130.284C346.221 130.408 346.735 130.52 347.257 130.618C347.778 130.716 348.295 130.796 348.824 130.869C349.352 130.942 349.873 130.994 350.406 131.037C350.939 131.08 351.473 131.109 351.99 131.126C352.272 131.134 352.559 131.139 352.867 131.139C353.115 131.139 353.343 131.139 353.564 131.131C354.086 131.119 354.608 131.093 355.116 131.056C355.624 131.018 356.147 130.967 356.634 130.9C357.122 130.833 357.625 130.757 358.106 130.666C358.587 130.575 359.055 130.472 359.518 130.356C359.981 130.239 360.439 130.106 360.86 129.968C361.281 129.83 361.711 129.673 362.119 129.506C362.526 129.339 362.92 129.155 363.284 128.972C363.648 128.789 364.013 128.576 364.342 128.364C364.669 128.155 364.983 127.928 365.285 127.684C365.565 127.458 365.831 127.214 366.08 126.954C366.308 126.716 366.518 126.463 366.709 126.195C366.885 125.947 367.041 125.686 367.175 125.413C367.3 125.156 367.403 124.888 367.481 124.612C367.631 124.086 367.681 123.536 367.628 122.991C367.602 122.717 367.551 122.445 367.478 122.179C367.401 121.905 367.301 121.637 367.182 121.379C367.055 121.105 366.909 120.842 366.745 120.589C366.57 120.32 366.377 120.063 366.169 119.819C365.946 119.558 365.708 119.309 365.457 119.075C365.198 118.83 364.915 118.59 364.616 118.363C364.318 118.136 363.986 117.899 363.648 117.684C363.311 117.469 362.937 117.253 362.554 117.047C362.171 116.842 361.753 116.641 361.338 116.458C360.922 116.275 360.472 116.091 360.003 115.919C359.534 115.746 359.066 115.593 358.584 115.45C358.101 115.307 357.619 115.178 357.124 115.061C356.63 114.944 356.137 114.841 355.636 114.751C355.135 114.66 354.63 114.583 354.123 114.518C353.634 114.455 353.121 114.403 352.602 114.363C352.082 114.322 351.577 114.297 351.081 114.282C350.811 114.28 350.525 114.275 350.243 114.275L350.24 114.276Z" fill="#F7EFFF"/>
<path fill-rule="evenodd" clip-rule="evenodd" d="M49.5614 194.773C55.5949 191.008 62.5797 189.049 69.6908 189.127C76.802 189.204 83.7423 191.316 89.6921 195.211C95.6418 199.107 100.352 204.624 103.267 211.11C106.182 217.597 107.18 224.783 106.142 231.818C105.307 237.466 102.85 241.533 99.757 246.666L99.7517 246.676C98.9153 248.062 98.0317 249.523 97.1214 251.125C92.8353 258.627 94.3097 269.923 97.2318 279.752C98.1047 282.688 100.114 287.443 102.552 293.213V293.218C107.253 304.34 113.545 319.235 116.348 332.102C120.573 351.499 121.112 389.157 120.619 392.815C120.614 392.853 120.611 392.884 120.609 392.916C120.607 392.948 120.609 392.965 120.609 392.992C120.609 403.268 97.8457 411.597 69.7711 411.598H68.7692C40.6947 411.599 17.9312 403.27 17.9312 392.994C17.9318 392.935 17.9279 392.875 17.9197 392.816C17.4249 389.157 17.9641 351.498 22.1906 332.103C24.9944 319.233 31.286 304.341 35.9868 293.219V293.213C38.4248 287.444 40.4357 282.689 41.3068 279.753C44.2289 269.924 45.7024 258.627 41.4172 251.126C40.506 249.531 39.6234 248.067 38.787 246.677L38.7816 246.667C35.6852 241.534 33.232 237.466 32.3965 231.819C31.3351 224.643 32.3944 217.313 35.444 210.731C38.4936 204.149 43.4006 198.602 49.5614 194.773Z" fill="url(#paint1_linear_37_12)"/>
<defs>
<linearGradient id="paint0_linear_37_12" x1="310.816" y1="220.974" x2="389.669" y2="455.888" gradientUnits="userSpaceOnUse">
<stop stop-color="#C9326F"/>
<stop offset="1" stop-color="#FF7E7E"/>
</linearGradient>
<linearGradient id="paint1_linear_37_12" x1="12.9267" y1="300.361" x2="113.031" y2="304.439" gradientUnits="userSpaceOnUse">
<stop stop-color="#C9326F"/>
<stop offset="1" stop-color="#FF7E7E"/>
</linearGradient>
</defs>
</svg>
