<svg width="556" height="556" viewBox="0 0 556 556" fill="none" xmlns="http://www.w3.org/2000/svg">
<path d="M321.309 513.981C314.73 513.981 308.234 512.507 302.299 509.669L175.125 448.849H175.134H175.123L175.096 448.837C175.073 448.828 175.041 448.813 175.005 448.794L174.994 448.789L174.797 448.698C173.854 448.232 171.66 446.93 171.636 444.921C172.089 436.228 171.99 416.73 166.199 383.818C163.217 368.195 155.902 351.365 150.562 339.076L150.546 339.038V339.029L150.537 339.012C148.408 334.419 146.51 329.722 144.853 324.939C143.573 320.914 142.821 316.741 142.615 312.524C142.244 305.048 144.416 297.668 148.778 291.585V291.579L148.8 291.546L148.962 291.295L149.053 291.157L149.203 290.927C150.94 288.313 152.977 285.913 155.274 283.776C159.06 280.26 163.092 277.02 167.339 274.079L311.325 211.471C314.474 210.102 317.871 209.396 321.305 209.396C324.739 209.396 328.136 210.102 331.285 211.471L499.948 284.804C504.421 286.747 508.229 289.956 510.904 294.035C513.578 298.113 515.002 302.885 515 307.762V410.355C514.994 415.072 513.655 419.691 511.138 423.679C508.621 427.668 505.027 430.864 500.773 432.899L340.324 509.669C334.387 512.507 327.891 513.98 321.311 513.981H321.309ZM321.309 234.573C319.392 234.571 317.495 234.964 315.736 235.727L184.839 292.641C183.179 293.363 181.767 294.553 180.774 296.066C179.782 297.58 179.254 299.35 179.254 301.16C179.254 302.969 179.782 304.739 180.774 306.253C181.767 307.766 183.179 308.956 184.839 309.678L315.733 366.595C317.492 367.355 319.389 367.748 321.306 367.748C323.223 367.748 325.12 367.355 326.879 366.595L457.77 309.677C459.43 308.958 460.844 307.769 461.838 306.256C462.832 304.744 463.363 302.975 463.365 301.165C463.367 299.356 462.841 297.585 461.85 296.07C460.86 294.556 459.448 293.364 457.79 292.64L326.878 235.73C325.12 234.966 323.223 234.572 321.305 234.573H321.309Z" fill="url(#paint0_linear_37_11)"/>
<path d="M321.303 311.228C319.294 311.23 317.306 310.816 315.465 310.01L178.369 250.395C176.631 249.639 175.152 248.392 174.113 246.807C173.074 245.222 172.521 243.368 172.521 241.473C172.521 239.578 173.074 237.724 174.113 236.139C175.152 234.555 176.631 233.308 178.369 232.552L311.093 174.835L311.274 174.895C311.747 175.05 312.241 175.194 312.742 175.323C313.243 175.452 313.752 175.565 314.265 175.664C314.777 175.763 315.302 175.85 315.826 175.921C316.35 175.993 316.879 176.049 317.415 176.092C317.95 176.136 318.488 176.166 319.019 176.183C319.318 176.192 319.62 176.197 319.921 176.197C320.147 176.197 320.384 176.197 320.626 176.189C321.158 176.177 321.696 176.15 322.223 176.111C322.75 176.073 323.275 176.021 323.795 175.953C324.315 175.885 324.834 175.805 325.336 175.715C325.838 175.624 326.342 175.514 326.825 175.396C327.308 175.279 327.784 175.142 328.249 174.998C328.714 174.854 329.171 174.693 329.603 174.526C329.813 174.445 330.02 174.36 330.221 174.274L464.251 232.544C465.989 233.299 467.468 234.546 468.507 236.131C469.546 237.716 470.099 239.57 470.099 241.465C470.099 243.36 469.546 245.214 468.507 246.799C467.468 248.384 465.989 249.631 464.251 250.387L327.14 310.008C325.3 310.814 323.312 311.23 321.303 311.228Z" fill="#FFB2BA"/>
<path d="M321.303 241.814C319.294 241.817 317.306 241.402 315.465 240.596L178.369 180.985C176.631 180.229 175.152 178.982 174.113 177.397C173.074 175.812 172.521 173.958 172.521 172.063C172.521 170.168 173.074 168.314 174.113 166.729C175.152 165.144 176.631 163.897 178.369 163.142L315.465 103.52C317.307 102.716 319.294 102.302 321.303 102.302C323.312 102.302 325.3 102.716 327.141 103.52L464.233 163.142C465.971 163.897 467.45 165.144 468.489 166.729C469.528 168.314 470.081 170.168 470.081 172.063C470.081 173.958 469.528 175.812 468.489 177.397C467.45 178.982 465.971 180.229 464.233 180.985L327.141 240.596C325.3 241.402 323.312 241.817 321.303 241.814ZM259.79 159.564C259.562 159.564 259.331 159.564 259.108 159.571C258.595 159.582 258.075 159.606 257.561 159.642C257.047 159.678 256.535 159.727 256.02 159.789C255.505 159.85 254.998 159.925 254.5 160.01C254.003 160.095 253.504 160.191 253.011 160.304C252.519 160.417 252.041 160.537 251.562 160.673C251.082 160.809 250.624 160.954 250.164 161.114C249.704 161.275 249.262 161.446 248.829 161.629C248.396 161.812 247.967 162.012 247.568 162.216C247.168 162.42 246.769 162.644 246.39 162.876C246.011 163.108 245.658 163.349 245.334 163.591C245.01 163.833 244.705 164.086 244.428 164.34C244.161 164.583 243.908 164.842 243.671 165.115C243.452 165.368 243.249 165.635 243.064 165.914C242.894 166.174 242.742 166.447 242.611 166.729C242.487 166.996 242.385 167.272 242.305 167.555C242.229 167.826 242.178 168.104 242.15 168.385C242.123 168.66 242.122 168.938 242.146 169.213C242.17 169.491 242.219 169.766 242.293 170.035C242.369 170.312 242.469 170.583 242.592 170.843C242.722 171.117 242.873 171.38 243.045 171.629C243.228 171.897 243.43 172.151 243.648 172.39C243.885 172.647 244.137 172.889 244.404 173.115C244.693 173.36 244.996 173.589 245.31 173.801C245.64 174.024 245.996 174.239 246.371 174.442C246.745 174.645 247.157 174.845 247.583 175.029C248.009 175.213 248.453 175.386 248.914 175.545C249.376 175.704 249.837 175.843 250.325 175.974C250.812 176.104 251.299 176.217 251.8 176.316C252.301 176.416 252.814 176.502 253.328 176.573C253.842 176.643 254.37 176.702 254.896 176.746C255.406 176.788 255.942 176.818 256.491 176.836C256.795 176.845 257.096 176.849 257.385 176.849C257.613 176.849 257.848 176.849 258.101 176.841C258.635 176.829 259.177 176.803 259.712 176.764C260.247 176.725 260.786 176.673 261.312 176.604C261.839 176.535 262.369 176.458 262.889 176.364C263.409 176.271 263.93 176.163 264.43 176.045C264.929 175.927 265.427 175.794 265.919 175.649C266.411 175.504 266.894 175.342 267.348 175.174C267.802 175.007 268.271 174.818 268.703 174.625C269.134 174.432 269.565 174.22 269.971 174.002C270.377 173.783 270.774 173.549 271.14 173.306C271.506 173.063 271.85 172.817 272.174 172.557C272.479 172.313 272.77 172.054 273.047 171.779C273.301 171.527 273.538 171.259 273.758 170.978C273.962 170.719 274.147 170.446 274.313 170.162C274.467 169.897 274.599 169.62 274.71 169.334C274.814 169.064 274.895 168.786 274.953 168.502C275.008 168.229 275.039 167.951 275.043 167.672C275.049 167.396 275.028 167.121 274.983 166.849C274.937 166.574 274.868 166.303 274.774 166.041C274.677 165.768 274.558 165.504 274.418 165.251C274.27 164.985 274.102 164.731 273.916 164.489C273.717 164.231 273.501 163.986 273.27 163.757C273.022 163.51 272.759 163.278 272.483 163.062C272.186 162.828 271.876 162.611 271.556 162.409C271.226 162.201 270.868 161.998 270.49 161.805C270.112 161.612 269.706 161.426 269.284 161.253C268.863 161.08 268.416 160.917 267.974 160.773C267.532 160.629 267.068 160.495 266.598 160.374C266.145 160.257 265.66 160.15 265.167 160.057C264.673 159.963 264.182 159.884 263.692 159.818C263.202 159.753 262.695 159.699 262.182 159.658C261.669 159.617 261.157 159.591 260.651 159.577C260.371 159.568 260.081 159.564 259.79 159.564ZM319.775 158.969C319.553 158.969 319.322 158.969 319.096 158.977C318.582 158.987 318.066 159.011 317.564 159.047C317.062 159.084 316.557 159.132 316.052 159.193C315.546 159.254 315.055 159.328 314.568 159.413C314.082 159.499 313.603 159.595 313.126 159.707C312.65 159.819 312.178 159.944 311.735 160.075C311.272 160.213 310.829 160.36 310.408 160.515C309.971 160.677 309.548 160.849 309.151 161.028C308.754 161.208 308.348 161.41 307.979 161.614C307.61 161.818 307.242 162.041 306.903 162.271C306.575 162.492 306.258 162.729 305.955 162.983C305.676 163.216 305.411 163.465 305.162 163.729C304.931 163.972 304.717 164.23 304.521 164.502C304.339 164.755 304.176 165.021 304.033 165.297C303.899 165.56 303.787 165.832 303.697 166.113C303.613 166.382 303.552 166.657 303.516 166.936C303.479 167.21 303.468 167.486 303.482 167.762C303.496 168.041 303.535 168.317 303.598 168.589C303.665 168.867 303.754 169.14 303.865 169.404C303.984 169.682 304.123 169.951 304.282 170.208C304.452 170.483 304.64 170.745 304.846 170.993C305.068 171.26 305.306 171.513 305.559 171.751C305.832 172.007 306.119 172.249 306.419 172.476C306.726 172.708 307.064 172.939 307.425 173.161C307.787 173.383 308.175 173.598 308.577 173.795C308.98 173.993 309.426 174.198 309.872 174.38C310.318 174.561 310.798 174.742 311.276 174.893C311.753 175.043 312.243 175.192 312.744 175.32C313.245 175.449 313.753 175.562 314.266 175.661C314.765 175.758 315.29 175.842 315.828 175.918C316.348 175.989 316.883 176.046 317.416 176.09C317.95 176.133 318.494 176.163 319.021 176.18C319.317 176.189 319.62 176.194 319.923 176.194C320.15 176.194 320.387 176.194 320.628 176.186C321.16 176.174 321.696 176.148 322.225 176.109C322.753 176.07 323.279 176.018 323.797 175.949C324.315 175.88 324.837 175.802 325.338 175.711C325.838 175.619 326.334 175.512 326.827 175.394C327.319 175.275 327.793 175.142 328.255 174.998C328.717 174.854 329.175 174.693 329.61 174.526C330.044 174.358 330.475 174.172 330.878 173.982C331.282 173.791 331.683 173.577 332.051 173.361C332.419 173.145 332.78 172.908 333.115 172.668C333.436 172.436 333.743 172.187 334.036 171.922C334.305 171.679 334.557 171.42 334.793 171.146C335.009 170.894 335.208 170.628 335.387 170.348C335.552 170.088 335.696 169.815 335.819 169.532C335.933 169.266 336.024 168.99 336.091 168.708C336.222 168.165 336.253 167.603 336.181 167.05C336.145 166.774 336.084 166.501 336 166.235C335.913 165.958 335.804 165.688 335.674 165.429C335.536 165.156 335.378 164.894 335.203 164.643C335.015 164.377 334.81 164.123 334.59 163.883C334.354 163.627 334.103 163.385 333.84 163.158C333.556 162.912 333.26 162.681 332.953 162.466C332.635 162.242 332.292 162.023 331.932 161.816C331.572 161.608 331.177 161.401 330.78 161.213C330.383 161.026 329.94 160.835 329.497 160.663C329.054 160.491 328.591 160.33 328.121 160.184C327.65 160.038 327.171 159.904 326.69 159.787C326.209 159.67 325.705 159.56 325.215 159.471C324.726 159.381 324.218 159.3 323.709 159.233C323.2 159.166 322.687 159.113 322.181 159.074C321.676 159.034 321.15 159.007 320.641 158.993C320.353 158.973 320.063 158.969 319.782 158.969H319.775ZM380.112 158.599C379.888 158.599 379.659 158.599 379.441 158.606C378.933 158.617 378.422 158.64 377.922 158.677C377.422 158.713 376.915 158.763 376.434 158.823C375.953 158.882 375.452 158.958 374.984 159.042C374.515 159.126 374.052 159.223 373.588 159.335C373.124 159.448 372.682 159.57 372.254 159.698C371.827 159.826 371.397 159.98 370.994 160.137C370.591 160.295 370.185 160.47 369.816 160.649C369.433 160.831 369.069 161.031 368.728 161.234C368.391 161.435 368.065 161.654 367.751 161.889C367.457 162.109 367.176 162.346 366.91 162.6C366.667 162.832 366.439 163.08 366.228 163.343C366.034 163.586 365.858 163.844 365.703 164.114C365.558 164.368 365.434 164.633 365.334 164.908C365.238 165.171 365.165 165.442 365.118 165.718C365.072 165.987 365.051 166.26 365.055 166.534C365.061 166.811 365.091 167.088 365.146 167.36C365.203 167.64 365.283 167.916 365.385 168.183C365.493 168.464 365.623 168.737 365.772 168.998C365.931 169.278 366.11 169.546 366.306 169.801C366.517 170.075 366.743 170.336 366.985 170.583C367.246 170.849 367.521 171.101 367.808 171.338C368.102 171.582 368.427 171.825 368.773 172.063C369.119 172.302 369.498 172.53 369.878 172.746C370.259 172.961 370.694 173.183 371.122 173.38C371.549 173.577 372.028 173.781 372.5 173.964C372.972 174.147 373.475 174.319 373.976 174.476C374.477 174.632 374.991 174.775 375.505 174.902C376.019 175.028 376.543 175.143 377.074 175.242C377.605 175.342 378.131 175.424 378.669 175.498C379.208 175.572 379.738 175.626 380.281 175.669C380.824 175.713 381.368 175.743 381.895 175.76C382.182 175.768 382.474 175.772 382.787 175.772C383.04 175.772 383.272 175.772 383.497 175.765C384.029 175.753 384.561 175.726 385.078 175.688C385.596 175.65 386.128 175.598 386.624 175.53C387.121 175.462 387.633 175.384 388.123 175.291C388.613 175.199 389.09 175.094 389.561 174.975C390.033 174.856 390.499 174.72 390.928 174.58C391.357 174.439 391.795 174.28 392.21 174.11C392.625 173.939 393.026 173.752 393.396 173.566C393.767 173.379 394.14 173.163 394.475 172.947C394.807 172.734 395.128 172.503 395.435 172.255C395.72 172.024 395.991 171.775 396.245 171.511C396.477 171.269 396.691 171.01 396.885 170.738C397.065 170.485 397.223 170.219 397.359 169.941C397.487 169.679 397.592 169.406 397.671 169.125C397.824 168.589 397.875 168.029 397.821 167.474C397.794 167.195 397.743 166.918 397.668 166.648C397.589 166.368 397.489 166.096 397.367 165.832C397.238 165.554 397.089 165.285 396.922 165.028C396.743 164.755 396.547 164.492 396.335 164.244C396.108 163.978 395.866 163.725 395.61 163.486C395.346 163.237 395.058 162.992 394.754 162.761C394.45 162.53 394.111 162.289 393.768 162.07C393.425 161.85 393.043 161.63 392.653 161.421C392.264 161.211 391.838 161.007 391.415 160.821C390.991 160.634 390.533 160.447 390.055 160.272C389.578 160.096 389.101 159.94 388.61 159.794C388.119 159.648 387.627 159.517 387.124 159.398C386.62 159.279 386.118 159.174 385.607 159.082C385.097 158.989 384.583 158.911 384.067 158.845C383.568 158.781 383.047 158.728 382.517 158.687C381.988 158.645 381.473 158.62 380.969 158.605C380.694 158.602 380.402 158.598 380.115 158.598L380.112 158.599Z" fill="#F7EFFF"/>
<path fill-rule="evenodd" clip-rule="evenodd" d="M73.8812 240.582C80.026 236.748 87.1398 234.752 94.3823 234.831C101.625 234.911 108.693 237.061 114.753 241.028C120.812 244.996 125.61 250.615 128.579 257.221C131.548 263.828 132.564 271.146 131.507 278.311C130.656 284.063 128.154 288.205 125.004 293.433L124.998 293.443C124.146 294.855 123.246 296.343 122.319 297.974C117.954 305.615 119.456 317.12 122.432 327.13C123.321 330.12 125.367 334.963 127.85 340.839V340.845C132.638 352.172 139.046 367.342 141.901 380.446C146.204 400.202 146.753 438.555 146.251 442.281C146.245 442.319 146.243 442.351 146.241 442.384C146.239 442.416 146.241 442.434 146.241 442.462C146.241 452.927 123.057 461.41 94.4641 461.411H93.4437C64.8507 461.412 41.6669 452.928 41.6669 442.463C41.6675 442.403 41.6635 442.342 41.6551 442.282C41.1513 438.556 41.7004 400.201 46.005 380.447C48.8605 367.34 55.2683 352.173 60.0559 340.846V340.84C62.5389 334.964 64.587 330.121 65.4742 327.131C68.4502 317.121 69.9509 305.615 65.5865 297.975C64.6586 296.351 63.7596 294.86 62.9078 293.444L62.9023 293.434C59.7487 288.206 57.2502 284.064 56.3993 278.312C55.3183 271.003 56.3971 263.538 59.5031 256.835C62.609 250.131 67.6066 244.482 73.8812 240.582Z" fill="url(#paint1_linear_37_11)"/>
<defs>
<linearGradient id="paint0_linear_37_11" x1="339.96" y1="267.267" x2="420.269" y2="506.518" gradientUnits="userSpaceOnUse">
<stop stop-color="#C9326F"/>
<stop offset="1" stop-color="#FF7E7E"/>
</linearGradient>
<linearGradient id="paint1_linear_37_11" x1="36.57" y1="348.12" x2="138.523" y2="352.273" gradientUnits="userSpaceOnUse">
<stop stop-color="#C9326F"/>
<stop offset="1" stop-color="#FF7E7E"/>
</linearGradient>
</defs>
</svg>
